<?xml version="1.0" encoding="UTF-8"?>
<svg version="1.1" viewBox="0 0 1200 936" width="1280" height="1280" xmlns="http://www.w3.org/2000/svg">
<path transform="translate(592)" d="m0 0h24l20 4 21 7 16 8 11 7 13 10 12 11 9 9 9 11 11 15 13 21 1 2 10-3 25-7 23-4 8-1h38l23 4 21 7 15 8 14 10 13 12 10 12 8 13 8 17 5 15 4 18 2 17v35l-3 25-6 28-8 27-11 28-12 25-10 19-9 15-18 27-12 16-11 14-9 10-7 8-9 10-29 29-8 7-17 14-17 13-19 13-18 11-18 10-25 12-27 10-21 6-20 4-17 2h-45l-26-4-17-4-19-6-19-7-24-11-21-11-22-14-20-14-14-11-13-11-8-7-15-14-20-20-7-8-9-10-8-10-14-18-14-20-12-19-12-21-12-23-12-29-11-33-6-26-4-28v-43l3-19 5-19 6-15 7-14 12-17 15-15 16-11 15-8 17-6 17-4 25-2 24 1 30 5 25 7 24 9 11-19 8-12 10-14 11-12 7-8 12-11 15-11 17-10 20-8 21-5zm1 36-18 4-16 7-13 8-9 7-10 9-12 12-12 16-12 19-4 6 1 4 16 9 30 20 17 13 13 11 11 9 9 9 8 7 15 15 7 8 13 15 11 14 10 13 12 17 11 17 15 26 13 26 13 32 9 29 6 28 3 23 1 28 3-1 8-20 10-30 8-34 4-24 3-29 1-16v-46l-3-35-6-36-9-36-11-32-11-24-9-17-9-14-12-16-11-12-12-12-15-11-15-8-17-6-11-2zm-247 88-21 3-18 6-16 9-12 11-7 7-7 11-8 16-6 21-2 13-1 12v16l3 27 6 28 12 36 10 23 8 16 10 19 13 21 11 16 14 19 9 11 12 14 14 15 14 14 8 7 11 10 14 11 13 10 13 9 19 12 22 12 27 12 24 8 21 5 24 3h21l19-3 18-6 13-7 13-10 9-10 9-14 7-16 5-19 2-13v-35l-3-23-6-26-11-33-11-25-11-22-16-27-10-15-13-18-13-16-9-11-14-15-6-7-8-7-11-11-8-7-13-11-17-13-17-12-28-17-16-8-20-9-16-6-27-7-18-3-9-1zm475 1-25 4-24 7-4 2 3 10 7 19 9 30 7 32 4 27 3 30 1 24v22l-1 25-4 38-5 28-5 22-7 25-10 28-11 24-10 19-11 17-1 4 6-3 20-14 13-10 11-9 13-11 17-16 13-13v-2l3-1 7-8 12-14 13-17 11-15 13-20 10-17 10-19 10-21 10-26 8-27 5-25 2-16v-34l-3-20-5-17-8-16-9-13-10-10-13-9-14-7-16-5-13-2z" fill="#FFFFFF"/>
<path transform="translate(196,649)" d="m0 0h21l13 4 11 6 10 9 7 9 6 12 3 13v13l-4 16-7 12-11 12-11 7-15 5-16 1-12-2-16-8-9-7-7-8-7-12-4-13-1-13 3-16 7-14 8-10 10-8 13-6zm7 31-9 3-9 8-4 8-1 3v12l5 10 9 8 7 3h13l10-5 7-8 3-7v-15l-5-9-8-7-7-3z" fill="#FFFFFF"/>
<path transform="translate(587,818)" d="m0 0h20l12 3 12 6 10 8 8 11 6 13 2 9v17l-3 13-7 13-9 10-10 7-13 6-7 2h-19l-13-4-12-6-10-8v-2h-2l-9-14-4-12-1-5v-18l4-13 5-10 7-9 10-8 12-6zm3 32-10 5-6 7-3 7-1 11 3 10 9 10 10 4h11l10-4 5-4 5-8 1-3v-16l-5-10-7-6-8-3z" fill="#FFFFFF"/>
<path transform="translate(336,746)" d="m0 0h17l14 4 11 6 12 11 7 10 5 12 1 10-1 1-30 1-4-10-5-6-12-6h-12l-8 3-7 7-5 11-1 10 4 11 5 6 9 5 5 2h11l3-1-1-3-15-8-2-4 10-18 2-4 6 2 18 10 24 13 2 1-1 6-8 14-11 12-10 6-11 4-5 1h-14l-13-3-15-8-12-11-7-10-5-12-2-16 2-13 5-14 9-13 10-9 8-5 11-4z" fill="#FFFFFF"/>
<path transform="translate(936,679)" d="m0 0h15l16 4 13 8 5 4 8 10 7 14 2 7 1 14-2 13-5 12-7 11-9 9-13 8-13 4-4 1h-17l-14-4-12-7-11-11-8-14-3-8-1-6v-18l3-11 7-14 9-10 7-6 14-7zm5 32-10 3-8 6-6 9-2 11 2 9 6 9 8 6 5 2h13l10-5 5-5 4-5 2-6v-13l-5-10-8-7-7-3z" fill="#FFFFFF"/>
<path transform="translate(1132,458)" d="m0 0h18l14 4 12 7 9 8 9 14 5 12 1 3v22l-6 15-8 12-10 10-10 6-10 4-11 2h-10l-11-2-12-5-11-7-9-10-8-15-3-13v-14l3-12 4-9 7-11 8-8 11-7 13-5zm2 32-10 5-6 7-4 8-1 11 4 11 5 6 8 5 7 2h8l10-4 7-6 5-10 1-4v-9l-4-10-7-7-7-4-4-1z" fill="#FFFFFF"/>
<path transform="translate(1050,561)" d="m0 0h17l-1 13-3 17-7 2-8 3-7 6-5 10-1 3v8l4 10 6 7 12 6 4 1h7l10-4 6-5 5-8 2-6v-8h-3l-8 10-6 5-9-8-10-8 1-5 11-12 11-14 4-5h2l2-4 4-5 4 2 11 9 8 10 6 13 2 9v13l-3 12-6 12-9 11-9 8-14 7-12 3h-15l-11-3-14-7-10-9-7-8-7-14-2-8-1-12 2-13 5-13 8-11 9-9 14-8z" fill="#FFFFFF"/>
<path transform="translate(108,550)" d="m0 0h18l11 3 9 4 9 6 10 10 8 14 4 13v21l-4 13-7 12-8 9-13 8-10 4-10 2h-14l-15-4-12-7-9-8-9-13-5-12-2-9v-16l4-14 6-11 9-10 9-7 13-6zm4 32-10 5-5 5-4 6-2 6v10l4 10 6 7 6 4 6 2h10l9-4 6-4 6-9 2-9-1-9-5-10-8-7-7-3z" fill="#FFFFFF"/>
<path transform="translate(455,798)" d="m0 0h18l14 4 12 6 12 11 7 11 4 9 2 8v18l-3 12-7 14-11 12-11 7-15 5-15 1-13-2-13-5-11-8-7-7-8-13-4-12-1-5v-14l3-13 7-14 9-10 7-6 12-6zm4 31-8 3-7 6-6 12v14l4 8 4 5 8 5 6 2h11l8-3 8-7 4-8 1-3v-14l-5-10-7-6-11-4z" fill="#FFFFFF"/>
<path transform="translate(712,804)" d="m0 0h19l11 3 11 6 8 7 7 10 5 10 4 16v11l-3 13-7 14-5 6-11 8-8 4-45 15h-4l-11-33-17-54-5-16v-4l36-12zm3 31-12 4-1 3 14 44 5 1 14-6 5-5 4-8v-11l-3-9-4-6-8-6-2-1z" fill="#FFFFFF"/>
<path transform="translate(861,730)" d="m0 0 3 1 10 18 4 8-10 7-11 6 2 5 14 25 14 24 9 16-3 3-19 11-3 2-4-1-9-15-15-26-14-24v-2l-6 2-14 8-4 2-6-9-8-14-2-4 8-5 29-17 27-16z" fill="#FFFFFF"/>
<path transform="translate(80,455)" d="m0 0 4 1 10 17 13 21 14 23 5 8-1 4-21 13-5 1-12-20-5 1-46 28-16 10h-4l-14-23-2-4 21-12 19-12 25-15 3-2-2-5-8-14-2-4 5-4 15-9z" fill="#FFFFFF"/>
</svg>
